<?xml version="1.0" encoding="UTF-8"?>
<svg xmlns="http://www.w3.org/2000/svg" xmlns:xlink="http://www.w3.org/1999/xlink" width="334pt" height="191pt" viewBox="0 0 334 191" version="1.1">
<g id="surface1">
<path style=" stroke:none;fill-rule:nonzero;fill:rgb(0%,0%,100%);fill-opacity:1;" d="M 189.5 74.21875 L 227.570312 74.359375 L 256.851562 122.070312 C 260.226562 126.410156 264.0625 130.5 271.257812 132.757812 C 282.109375 134.238281 297.382812 131.730469 308.9375 122.511719 C 322.347656 111.820312 327.253906 102.535156 324.246094 85.535156 C 322.753906 77.085938 316.078125 59.394531 292.609375 44.441406 C 269.136719 29.488281 228.914062 18.601562 215.246094 16.851562 C 187.117188 13.246094 148.285156 12.863281 115.769531 17.679688 C 88.554688 21.710938 50.488281 33.066406 33.089844 45.371094 L 13.628906 45.582031 C 25.75 31.722656 41.183594 22.539062 67.714844 13.632812 C 90.011719 6.152344 111.121094 3.382812 133.0625 1.378906 C 154.378906 -0.570312 175.40625 -0.480469 196.253906 1.820312 C 213.078125 3.675781 238.828125 7.378906 256.523438 13.761719 C 274.792969 20.355469 293.546875 28.050781 307.351562 40.066406 C 320.40625 51.425781 331.761719 66.320312 333.734375 85.984375 C 335.273438 101.386719 329.992188 112.792969 320.757812 121.332031 C 311.519531 129.875 299.039062 136.261719 286.351562 138.09375 L 245.644531 137.972656 C 231.246094 138.105469 225.371094 130.390625 219.371094 123.921875 Z M 189.5 74.21875 "/>
<path style=" stroke:none;fill-rule:nonzero;fill:rgb(0%,0%,100%);fill-opacity:1;" d="M 119.546875 66.78125 L 81.066406 66.707031 L 78.070312 61.261719 C 75.378906 56.695312 74.460938 54.773438 67.699219 51.082031 C 57.035156 49.253906 36.527344 54.957031 25.136719 64.496094 C 12.03125 75.449219 8.082031 89.199219 10.007812 101.140625 C 11.914062 112.949219 17.304688 127.214844 41.191406 143.429688 C 65.136719 159.6875 105.964844 170.871094 120.0625 172.710938 C 149.074219 176.503906 191.375 175.980469 221.351562 170.78125 C 235.335938 168.367188 252.773438 164.851562 268.953125 159.003906 C 285.132812 153.152344 299.796875 145.628906 309.03125 138.5 L 327.519531 138.40625 C 316.46875 153.910156 299.207031 166.335938 271.839844 175.699219 C 248.84375 183.566406 228.742188 187.5 204.832031 189.644531 C 181.871094 191.703125 162.429688 191.417969 139.652344 189.84375 C 122.304688 188.628906 95.710938 183.832031 77.222656 177.808594 C 58.375 171.671875 39.296875 162.386719 24.527344 148.957031 C 11.210938 136.847656 1.277344 123.925781 0.0898438 102.25 C -0.804688 86.050781 5.144531 74.320312 14.53125 65.472656 C 23.929688 56.617188 42.285156 47.878906 56.957031 46.875 L 90.496094 46.742188 C 106.238281 46.304688 112.179688 52.578125 115.808594 60.503906 Z M 119.546875 66.78125 "/>
<path style=" stroke:none;fill-rule:nonzero;fill:rgb(100%,0%,0%);fill-opacity:1;" d="M 137.5625 73.980469 L 175.636719 74.121094 L 204.566406 122.070312 C 207.464844 126.53125 212.617188 131.335938 219.8125 133.59375 C 219.8125 133.59375 229.722656 133.421875 229.722656 133.421875 C 231.574219 135.445312 239.148438 137.464844 243.058594 138.015625 L 190.265625 138.097656 C 179.449219 137.394531 171.601562 131.28125 166.914062 124.8125 Z M 137.5625 73.980469 "/>
<path style=" stroke:none;fill-rule:nonzero;fill:rgb(0%,0%,100%);fill-opacity:1;" d="M 84.90625 74.351562 L 122.976562 74.492188 L 151.910156 122.445312 C 154.808594 126.902344 159.722656 131.59375 166.921875 133.847656 C 166.921875 133.847656 176.832031 133.679688 176.832031 133.679688 C 178.679688 135.703125 186.375 137.601562 190.285156 138.15625 L 137.488281 138.234375 C 126.675781 137.535156 118.941406 131.65625 114.253906 125.1875 Z M 84.90625 74.351562 "/>
<path style=" stroke:none;fill-rule:nonzero;fill:rgb(100%,0%,0%);fill-opacity:1;" d="M 171.417969 66.847656 L 133.128906 66.8125 L 129.980469 61.636719 C 127.292969 57.070312 125.429688 54.675781 118.664062 50.980469 C 118.664062 50.980469 108.253906 50.933594 108.253906 50.933594 C 106.128906 49.960938 101.976562 47.460938 95.34375 46.777344 L 149.117188 47.117188 C 160.234375 48.382812 163.128906 53.511719 167.71875 60.875 Z M 171.417969 66.847656 "/>
<path style=" stroke:none;fill-rule:nonzero;fill:rgb(0%,0%,100%);fill-opacity:1;" d="M 223.835938 66.898438 L 185.546875 66.863281 L 182.640625 62.007812 C 179.949219 57.445312 178.085938 55.371094 171.324219 51.675781 C 171.324219 51.675781 160.910156 51.628906 160.910156 51.628906 C 158.785156 50.65625 155.117188 47.835938 148.484375 47.148438 L 201.773438 47.492188 C 212.410156 48.753906 216.441406 54.765625 220.375 61.25 Z M 223.835938 66.898438 "/>
</g>
</svg>
